Coordinates
version=1
nRows=7
nColumns=46
inDegrees=yes

Units are S.I. units (second, meters, Newtons, ...)
Angles are in degrees.

endheader
time	pelvis_tilt	pelvis_list	pelvis_rotation	pelvis_tx	pelvis_ty	pelvis_tz	bb_angle	bb_tx	bb_ty	bb_tz	hip_flexion_r	hip_adduction_r	hip_rotation_r	knee_angle_r	knee_angle_r_beta	ankle_angle_r	subtalar_angle_r	mtp_angle_r	crank_angle_r	hip_flexion_l	hip_adduction_l	hip_rotation_l	knee_angle_l	knee_angle_l_beta	ankle_angle_l	subtalar_angle_l	mtp_angle_l	crank_angle_l	lumbar_extension	lumbar_bending	lumbar_rotation	arm_flex_r	arm_add_r	arm_rot_r	elbow_flex_r	pro_sup_r	wrist_flex_r	wrist_dev_r	arm_flex_l	arm_add_l	arm_rot_l	elbow_flex_l	pro_sup_l	wrist_flex_l	wrist_dev_l
      5.00000000	    -34.81718177	      8.47868928	     12.88234456	      0.37349525	      1.15331588	     -0.27439534	      0.00000000	      0.50000000	      0.00000000	      0.25000000	     35.49845145	    -17.80628204	     -3.64374792	     37.19765355	      0.64922153	    -24.08351508	     -7.70055212	      0.00000000	      0.00000000	     82.19235548	      5.30631634	     -5.09375788	     94.77581663	      1.65415005	      6.46258624	     -3.03249521	      0.00000000	      0.00000000	    -58.94881355	     -4.55221668	     -6.71678582	     14.20817211	    -28.86604925	     -5.25791343	    111.66380616	     51.24035392	      0.00000000	      0.00000000	     41.76412360	    -30.08223999	     24.83604697	    104.38602612	     52.90529780	      0.00000000	      0.00000000
      5.00500000	    -34.65838776	      8.19452028	     12.66808223	      0.37374923	      1.15529774	     -0.27369032	      0.00000000	      0.50000000	      0.00000000	      0.25000000	     36.33179879	    -17.34292087	     -2.94023369	     39.64121600	      0.69186974	    -24.21023192	     -8.30880688	      0.00000000	      0.00000000	     80.76646714	      4.85344610	     -5.27083411	     92.37448372	      1.61223889	      7.64675108	     -3.10254778	      0.00000000	      0.00000000	    -59.11187827	     -4.66333912	     -6.51492172	     14.92096026	    -28.53838541	     -4.96268390	    110.99655897	     51.14682801	      0.00000000	      0.00000000	     41.93654055	    -29.97570538	     24.85875210	    104.17512538	     52.83593154	      0.00000000	      0.00000000
      5.01000000	    -34.43932580	      7.54460569	     12.60914953	      0.37425137	      1.15698709	     -0.27361854	      0.00000000	      0.50000000	      0.00000000	      0.25000000	     36.99708504	    -16.68886191	     -2.65956446	     41.97247244	      0.73255784	    -24.36704006	     -8.43974870	      0.00000000	      0.00000000	     79.35696183	      4.50904640	     -5.08929832	     89.94284044	      1.56979870	      8.47203135	     -3.23018698	      0.00000000	      0.00000000	    -59.17131666	     -4.26599008	     -5.89271460	     15.18084203	    -28.35142519	     -4.79950203	    110.66160779	     51.08601712	      0.00000000	      0.00000000	     41.78042618	    -29.93830645	     24.82559256	    104.08680998	     52.78343733	      0.00000000	      0.00000000
      5.01500000	    -34.28434773	      7.54002003	     12.51941957	      0.37474861	      1.15849341	     -0.27301998	      0.00000000	      0.50000000	      0.00000000	      0.25000000	     37.93557611	    -16.59256561	     -2.07121209	     44.70828071	      0.78030670	    -24.22999526	     -9.15534015	      0.00000000	      0.00000000	     77.73367606	      4.35224067	     -5.48245616	     87.24970870	      1.52279469	      9.59628618	     -2.80994869	      0.00000000	      0.00000000	    -59.32102819	     -4.50703778	     -6.00297446	     15.78775157	    -28.10987321	     -4.60514794	    110.07017242	     51.01303315	      0.00000000	      0.00000000	     41.95723913	    -29.67602706	     24.86296551	    103.91711724	     52.75235250	      0.00000000	      0.00000000
      5.02000000	    -34.14104271	      7.27893504	     12.26026973	      0.37515256	      1.15988948	     -0.27288176	      0.00000000	      0.50000000	      0.00000000	      0.25000000	     38.86154638	    -16.17898623	     -1.37784304	     47.18889877	      0.82360165	    -24.18785295	     -9.20139374	      0.00000000	      0.00000000	     76.18274589	      4.02561442	     -5.67597524	     84.50462730	      1.47488398	     10.09653002	     -2.72128096	      0.00000000	      0.00000000	    -59.19165821	     -4.59506334	     -6.31247172	     17.28111336	    -27.48707253	     -3.46786847	    108.09500369	     50.86082495	      0.00000000	      0.00000000	     41.67567613	    -29.98334864	     24.54871407	    103.51310124	     52.62348855	      0.00000000	      0.00000000
      5.02500000	    -33.83952005	      6.85735190	     12.10690486	      0.37550432	      1.16097819	     -0.27274355	      0.00000000	      0.50000000	      0.00000000	      0.25000000	     39.60141548	    -15.64440848	     -0.94701533	     49.72013399	      0.86778004	    -24.03392310	     -9.54454284	      0.00000000	      0.00000000	     74.57146157	      3.74592470	     -5.63637051	     81.83080089	      1.42821691	     10.32012606	     -2.69179556	      0.00000000	      0.00000000	    -59.28829337	     -4.41353934	     -5.89531075	     17.54054096	    -27.50523994	     -3.34462006	    107.90336496	     50.84796980	      0.00000000	      0.00000000	     41.51066479	    -29.83142965	     24.42302961	    103.53701134	     52.61346869	      0.00000000	      0.00000000
      5.03000000	    -33.57668804	      6.53546273	     11.95072993	      0.37586938	      1.16189728	     -0.27264880	      0.00000000	      0.50000000	      0.00000000	      0.25000000	     40.39690321	    -15.22466742	     -0.51206929	     52.24619217	      0.91186808	    -23.81722686	     -9.69111744	      0.00000000	      0.00000000	     72.94147928	      3.53983385	     -5.60798279	     79.05613877	      1.37978992	     10.31182572	     -2.48527742	      0.00000000	      0.00000000	    -59.34579424	     -4.32939707	     -5.59404389	     17.76326865	    -27.50230162	     -3.18010939	    107.51697207	     50.80915323	      0.00000000	      0.00000000	     41.39929044	    -29.62630801	     24.24368835	    103.41660607	     52.57291383	      0.00000000	      0.00000000
